<svg id="visual" viewBox="0 0 9999 450" width="9999" height="450" xmlns="http://www.w3.org/2000/svg" xmlns:xlink="http://www.w3.org/1999/xlink" version="1.1"><g fill="#6180fa"><circle r="149" cx="3845" cy="381"></circle><circle r="10" cx="5583" cy="181"></circle><circle r="109" cx="1790" cy="226"></circle><circle r="122" cx="2507" cy="37"></circle><circle r="144" cx="534" cy="228"></circle><circle r="111" cx="4844" cy="402"></circle><circle r="114" cx="7478" cy="431"></circle><circle r="140" cx="9631" cy="175"></circle><circle r="29" cx="2909" cy="84"></circle><circle r="21" cx="971" cy="298"></circle><circle r="83" cx="3553" cy="143"></circle><circle r="22" cx="9148" cy="422"></circle><circle r="9" cx="7599" cy="27"></circle><circle r="141" cx="8723" cy="407"></circle><circle r="15" cx="6983" cy="142"></circle><circle r="22" cx="1567" cy="448"></circle><circle r="19" cx="2170" cy="276"></circle><circle r="21" cx="4269" cy="157"></circle><circle r="32" cx="8191" cy="309"></circle><circle r="94" cx="6261" cy="36"></circle><circle r="141" cx="4542" cy="404"></circle><circle r="147" cx="9013" cy="107"></circle><circle r="130" cx="5205" cy="15"></circle><circle r="41" cx="216" cy="197"></circle><circle r="36" cx="5203" cy="327"></circle><circle r="86" cx="2632" cy="402"></circle><circle r="12" cx="4695" cy="36"></circle><circle r="30" cx="8526" cy="149"></circle><circle r="44" cx="7863" cy="330"></circle><circle r="67" cx="3165" cy="320"></circle><circle r="64" cx="6241" cy="369"></circle><circle r="109" cx="9899" cy="326"></circle><circle r="54" cx="5944" cy="87"></circle><circle r="92" cx="6678" cy="96"></circle><circle r="125" cx="9308" cy="163"></circle><circle r="11" cx="1422" cy="153"></circle><circle r="31" cx="3454" cy="427"></circle><circle r="130" cx="6689" cy="401"></circle><circle r="26" cx="3280" cy="4"></circle><circle r="142" cx="782" cy="4"></circle><circle r="118" cx="3908" cy="6"></circle><circle r="105" cx="8088" cy="13"></circle><circle r="57" cx="6999" cy="448"></circle><circle r="110" cx="7310" cy="111"></circle><circle r="54" cx="7" cy="414"></circle><circle r="21" cx="9921" cy="3"></circle><circle r="110" cx="5886" cy="392"></circle><circle r="37" cx="4159" cy="440"></circle><circle r="81" cx="1087" cy="4"></circle><circle r="84" cx="1247" cy="419"></circle><circle r="50" cx="9493" cy="447"></circle></g></svg>