<svg id="visual" viewBox="0 0 900 450" width="900" height="450" xmlns="http://www.w3.org/2000/svg" xmlns:xlink="http://www.w3.org/1999/xlink" version="1.1"><rect width="900" height="450" fill="#6b81fa"></rect><g><g transform="translate(673 368)"><path d="M35.1 -12.1C39.4 1.9 32.6 18.7 20.2 27.7C7.9 36.7 -10.2 37.7 -21.4 29.6C-32.6 21.4 -37.1 3.9 -32.4 -10.6C-27.7 -25.1 -13.8 -36.7 0.8 -37C15.4 -37.2 30.8 -26.1 35.1 -12.1Z" stroke="#FFFFFF" fill="none" stroke-width="20"></path></g><g transform="translate(832 261)"><path d="M16.6 -5.9C18.6 0.8 15.3 8.6 9.1 13.2C3 17.8 -5.9 19.2 -11.1 15.4C-16.2 11.6 -17.4 2.8 -15 -4.5C-12.5 -11.8 -6.2 -17.5 0.5 -17.7C7.3 -17.8 14.6 -12.5 16.6 -5.9Z" stroke="#FFFFFF" fill="none" stroke-width="20"></path></g><g transform="translate(96 291)"><path d="M21.4 -7.7C23.9 0.7 19.4 10.6 12.2 15.6C5 20.5 -5 20.6 -12.5 15.5C-19.9 10.5 -24.9 0.4 -22.4 -8C-20 -16.4 -10 -23 -0.3 -22.9C9.4 -22.8 18.9 -16 21.4 -7.7Z" stroke="#FFFFFF" fill="none" stroke-width="20"></path></g><g transform="translate(21 87)"><path d="M15 -4.5C17 1.2 14.5 8.8 9.2 12.6C3.9 16.5 -4.1 16.6 -9.8 12.7C-15.5 8.7 -18.9 0.7 -16.9 -5.1C-14.9 -10.9 -7.4 -14.5 -0.5 -14.4C6.5 -14.2 13.1 -10.3 15 -4.5Z" stroke="#FFFFFF" fill="none" stroke-width="20"></path></g><g transform="translate(132 164)"><path d="M16.4 -5.4C18.7 2 16.5 10.8 11 14.8C5.4 18.7 -3.4 17.8 -9.1 13.5C-14.8 9.1 -17.4 1.3 -15.3 -5.6C-13.3 -12.6 -6.6 -18.7 0.2 -18.7C7 -18.8 14 -12.8 16.4 -5.4Z" stroke="#FFFFFF" fill="none" stroke-width="20"></path></g><g transform="translate(487 147)"><path d="M30.2 -9.6C34.7 4 30.8 20.5 20.2 28.3C9.6 36.1 -7.6 35.2 -18.5 27C-29.3 18.7 -33.6 3.2 -29.5 -10C-25.3 -23.1 -12.7 -33.9 0.1 -33.9C12.9 -33.9 25.7 -23.2 30.2 -9.6Z" stroke="#FFFFFF" fill="none" stroke-width="20"></path></g><g transform="translate(412 332)"><path d="M26.5 -8.9C30.3 3.2 26.6 17.4 17.5 24C8.4 30.6 -6.2 29.6 -15.5 22.5C-24.8 15.5 -28.9 2.4 -25.5 -9.2C-22 -20.8 -11 -30.8 0.1 -30.8C11.3 -30.9 22.6 -21 26.5 -8.9Z" stroke="#FFFFFF" fill="none" stroke-width="20"></path></g><g transform="translate(830 391)"><path d="M28.2 -9.8C31.2 0 24.5 12.3 15.1 18.7C5.6 25.1 -6.6 25.5 -15.8 19.4C-25 13.3 -31.1 0.6 -27.9 -9.5C-24.8 -19.5 -12.4 -26.9 0.1 -27C12.6 -27 25.2 -19.6 28.2 -9.8Z" stroke="#FFFFFF" fill="none" stroke-width="20"></path></g><g transform="translate(282 411)"><path d="M31 -9.2C34.8 1.7 28.9 16.7 18.2 24.3C7.4 32 -8.2 32.3 -17.3 25.3C-26.4 18.3 -29.2 4 -25.2 -7.1C-21.2 -18.3 -10.6 -26.2 1.5 -26.7C13.6 -27.2 27.2 -20.2 31 -9.2Z" stroke="#FFFFFF" fill="none" stroke-width="20"></path></g><g transform="translate(858 161)"><path d="M26.4 -7.1C30.5 4 27.5 18.9 18.6 25.3C9.7 31.8 -5.2 29.7 -15.6 22.1C-26 14.4 -31.8 1.1 -28.4 -9C-25.1 -19.1 -12.5 -26.1 -0.7 -25.9C11.1 -25.6 22.3 -18.2 26.4 -7.1Z" stroke="#FFFFFF" fill="none" stroke-width="20"></path></g><g transform="translate(402 229)"><path d="M18.8 -5.4C21.4 1.8 18.5 11.6 12.1 16.1C5.8 20.5 -4 19.7 -10.2 15C-16.4 10.2 -19.2 1.6 -16.9 -5.3C-14.6 -12.2 -7.3 -17.3 0.4 -17.4C8.1 -17.6 16.2 -12.7 18.8 -5.4Z" stroke="#FFFFFF" fill="none" stroke-width="20"></path></g><g transform="translate(208 79)"><path d="M25.5 -9.9C28.9 2.2 24.7 15.2 15.1 22.5C5.6 29.8 -9.3 31.5 -18.1 25C-27 18.6 -29.9 4 -25.9 -9C-21.8 -21.9 -10.9 -33.1 0.1 -33.2C11.1 -33.2 22.1 -22 25.5 -9.9Z" stroke="#FFFFFF" fill="none" stroke-width="20"></path></g><g transform="translate(486 400)"><path d="M17.7 -5.7C19.8 0.7 16.2 9 9.9 13.6C3.6 18.1 -5.3 18.9 -11 14.9C-16.6 10.8 -18.9 2 -16.5 -4.9C-14.1 -11.7 -7.1 -16.5 0.4 -16.6C7.8 -16.7 15.6 -12.2 17.7 -5.7Z" stroke="#FFFFFF" fill="none" stroke-width="20"></path></g><g transform="translate(315 32)"><path d="M24.8 -8.3C28.4 3 25 16.3 15.8 23.3C6.6 30.4 -8.3 31.2 -17.5 24.4C-26.8 17.6 -30.3 3.3 -26.5 -8.3C-22.6 -19.9 -11.3 -28.8 -0.3 -28.7C10.6 -28.6 21.3 -19.5 24.8 -8.3Z" stroke="#FFFFFF" fill="none" stroke-width="20"></path></g><g transform="translate(814 61)"><path d="M22.8 -7.2C26 2.5 22.7 14.6 14.1 21.3C5.5 27.9 -8.3 29.3 -16.5 23.2C-24.6 17.2 -27 3.8 -23.3 -6.6C-19.6 -17 -9.8 -24.5 0 -24.5C9.8 -24.5 19.5 -17 22.8 -7.2Z" stroke="#FFFFFF" fill="none" stroke-width="20"></path></g><g transform="translate(602 73)"><path d="M28.9 -9.7C32.3 1.1 26.4 14.6 16.4 21.7C6.4 28.7 -7.7 29.4 -16.6 22.9C-25.4 16.5 -29 2.9 -25.4 -8.2C-21.8 -19.3 -10.9 -28.1 0.9 -28.4C12.8 -28.7 25.5 -20.6 28.9 -9.7Z" stroke="#FFFFFF" fill="none" stroke-width="20"></path></g><g transform="translate(421 7)"><path d="M30.8 -11C34.3 0.9 27.7 15 17.2 22.4C6.6 29.8 -8 30.4 -17.3 23.7C-26.7 16.9 -30.9 2.8 -27.1 -9.4C-23.3 -21.6 -11.7 -31.8 1 -32.2C13.6 -32.5 27.3 -22.9 30.8 -11Z" stroke="#FFFFFF" fill="none" stroke-width="20"></path></g><g transform="translate(154 439)"><path d="M14.9 -4.8C17.2 2.1 15.3 10.4 9.9 14.6C4.4 18.8 -4.7 18.9 -10.3 14.7C-15.9 10.6 -17.8 2.1 -15.5 -4.9C-13.2 -11.8 -6.6 -17.2 -0.1 -17.1C6.3 -17.1 12.6 -11.6 14.9 -4.8Z" stroke="#FFFFFF" fill="none" stroke-width="20"></path></g><g transform="translate(673 146)"><path d="M23 -8.5C25.7 0.8 20.9 11.5 12.7 17.3C4.6 23.2 -6.9 24.3 -14.7 18.9C-22.5 13.6 -26.5 1.8 -23.4 -8C-20.4 -17.9 -10.2 -25.9 0 -25.8C10.2 -25.8 20.3 -17.9 23 -8.5Z" stroke="#FFFFFF" fill="none" stroke-width="20"></path></g><g transform="translate(584 294)"><path d="M27.5 -7.9C31.9 4.7 29.2 20.7 19.3 28.3C9.3 36 -8 35.4 -19 27.1C-30.1 18.8 -35.1 2.9 -30.8 -9.4C-26.6 -21.7 -13.3 -30.4 -0.9 -30.1C11.5 -29.8 23 -20.5 27.5 -7.9Z" stroke="#FFFFFF" fill="none" stroke-width="20"></path></g><g transform="translate(305 147)"><path d="M15.9 -5.3C18.2 1.8 15.9 10.3 10.1 14.7C4.4 19.1 -4.9 19.3 -10.8 15C-16.7 10.7 -19.2 1.8 -16.9 -5.5C-14.5 -12.8 -7.2 -18.5 -0.2 -18.5C6.8 -18.4 13.6 -12.5 15.9 -5.3Z" stroke="#FFFFFF" fill="none" stroke-width="20"></path></g><g transform="translate(195 246)"><path d="M17.5 -5.3C20.2 2.6 18.1 12.4 11.8 17.2C5.5 22.1 -5.2 22 -12.8 16.7C-20.3 11.4 -24.7 1 -22.1 -6.8C-19.4 -14.6 -9.7 -19.8 -1.2 -19.5C7.4 -19.1 14.8 -13.1 17.5 -5.3Z" stroke="#FFFFFF" fill="none" stroke-width="20"></path></g><g transform="translate(707 27)"><path d="M27.5 -7.9C31.8 4.2 28.7 19.7 18.5 27.6C8.3 35.5 -9 35.9 -19.5 28C-30 20.1 -33.7 4 -29.3 -8.2C-24.9 -20.4 -12.5 -28.7 -0.4 -28.6C11.6 -28.4 23.3 -19.9 27.5 -7.9Z" stroke="#FFFFFF" fill="none" stroke-width="20"></path></g></g></svg>