<svg id="visual" viewBox="0 0 900 600" width="900" height="600" xmlns="http://www.w3.org/2000/svg" xmlns:xlink="http://www.w3.org/1999/xlink" version="1.1"><rect x="0" y="0" width="900" height="600" fill="#ffffff"></rect><defs><linearGradient id="grad1_0" x1="33.3%" y1="0%" x2="100%" y2="100%"><stop offset="20%" stop-color="#ffffff" stop-opacity="1"></stop><stop offset="80%" stop-color="#ffffff" stop-opacity="1"></stop></linearGradient></defs><defs><linearGradient id="grad2_0" x1="0%" y1="0%" x2="66.7%" y2="100%"><stop offset="20%" stop-color="#ffffff" stop-opacity="1"></stop><stop offset="80%" stop-color="#ffffff" stop-opacity="1"></stop></linearGradient></defs><g transform="translate(900, 0)"><path d="M0 378.6C-30.8 308 -61.7 237.5 -124 214.8C-186.3 192 -280.2 217.1 -327.9 189.3C-375.5 161.5 -377.1 80.7 -378.6 0L0 0Z" fill="#b8d2ff"></path></g><g transform="translate(0, 600)"><path d="M0 -378.6C18.3 -286.3 36.6 -194.1 100.5 -174.1C164.4 -154.1 273.9 -206.3 327.9 -189.3C381.8 -172.3 380.2 -86.2 378.6 0L0 0Z" fill="#b8d2ff"></path></g></svg>