<!DOCTYPE svg PUBLIC "-//W3C//DTD SVG 1.1//EN" "http://www.w3.org/Graphics/SVG/1.1/DTD/svg11.dtd">
<!-- Uploaded to: SVG Repo, www.svgrepo.com, Transformed by: SVG Repo Mixer Tools -->
<svg fill="#ffffff" version="1.1" id="Capa_1" xmlns="http://www.w3.org/2000/svg" xmlns:xlink="http://www.w3.org/1999/xlink" width="800px" height="800px" viewBox="-158.79 -158.79 635.17 635.17" xml:space="preserve" stroke="#ffffff">
<g id="SVGRepo_bgCarrier" stroke-width="0">
<rect x="-158.79" y="-158.79" width="635.17" height="635.17" rx="317.585" fill="#2994FF" strokewidth="0"/>
</g>
<g id="SVGRepo_tracerCarrier" stroke-linecap="round" stroke-linejoin="round"/>
<g id="SVGRepo_iconCarrier"> <g> <path d="M38.667,271.573c22.719,38.791,89.06,46.897,128.488,45.942c35.794-0.864,94.059-12.724,111.803-48.164 c9.734-19.443-5.392-49.93-12.964-68.25c-9.56-23.167-23.467-43.988-41.073-61.543c13.974-18.26,20.807-42.838,19.714-65.191 c-2.168-44.093-35.933-74.375-79.312-74.363c-48.807-0.405-89.486,30.892-93.059,80.71c-1.795,25.064,6.611,45.237,20.858,59.853 c-17.783,18.921-32.171,40.749-41.788,65.032C45.092,221.344,28.546,254.298,38.667,271.573z M165.323,30.748 c54.26-0.012,65.351,73.517,23.143,100.496c-35.539,22.723-81.01-4.924-85.298-43.294C99.078,51.359,132.807,30.478,165.323,30.748 z M68.586,253.211c1.846-10.19,5.233-20.038,8.566-29.802c8.389-24.56,23.458-46.628,41.535-65.029 c19.098,8.8,41.868,11.646,63.966,7.792c6.81-1.184,13.03-3.471,18.765-6.488c25.971,25.781,41.007,58.273,49.012,94.404 c4.426,19.983-67.332,31.681-83.28,32.678c-32.282,2.023-65.215-5.141-92.315-22.969C63.863,256.592,66.583,264.29,68.586,253.211z "/> </g> </g>
</svg>