<!DOCTYPE svg PUBLIC "-//W3C//DTD SVG 1.1//EN" "http://www.w3.org/Graphics/SVG/1.1/DTD/svg11.dtd">
<!-- Uploaded to: SVG Repo, www.svgrepo.com, Transformed by: SVG Repo Mixer Tools -->
<svg height="800px" width="800px" version="1.1" id="Capa_1" xmlns="http://www.w3.org/2000/svg" xmlns:xlink="http://www.w3.org/1999/xlink" viewBox="-124.75 -124.75 569.36 569.36" xml:space="preserve" fill="#000000">
<g id="SVGRepo_bgCarrier" stroke-width="0">
<rect x="-124.75" y="-124.75" width="569.36" height="569.36" rx="284.68" fill="#2994FF" strokewidth="0"/>
</g>
<g id="SVGRepo_tracerCarrier" stroke-linecap="round" stroke-linejoin="round"/>
<g id="SVGRepo_iconCarrier"> <g> <path style="fill:#ffffff;" d="M96.274,174.67c28.403-1.637,30.045-50.039-1.093-48.946c-13.103-0.549-32.145,8.849-26.76,31.47 C71.608,170.568,83.172,175.213,96.274,174.67z"/> <path style="fill:#ffffff;" d="M163.431,120.279c28.403-1.637,30.04-50.039-1.093-48.952c-13.103-0.549-32.145,8.849-26.76,31.47 C138.764,116.178,150.328,120.823,163.431,120.279z"/> <path style="fill:#ffffff;" d="M247.736,139.995c28.403-1.637,30.04-50.039-1.093-48.952c-13.103-0.549-32.145,8.849-26.76,31.47 C223.07,135.894,234.633,140.539,247.736,139.995z"/> <path style="fill:#ffffff;" d="M238.37,234.211c40.619-2.344,42.963-71.567-1.566-70.006 c-18.738-0.783-45.971,12.657-38.269,45.008C203.087,228.348,219.627,234.989,238.37,234.211z"/> <path style="fill:#ffffff;" d="M109.35,228.94c10.225-3.242,19.782-8.692,29.877-12.336c22.888-8.262,22.561,11.531,20.505,25.972 c-2.339,16.366-2.018,34.821,13.179,45.204c32.52,22.219,77.153,12.57,104.539-12.706c27.375-25.275,37.394-65.878,41.13-101.433 c3.356-31.878,1.18-76.995-19.504-103.462c-20.103-25.738-54.429-41.114-85.556-47.575c-55.68-11.558-108.014,12.39-150.722,46.433 c-37.198,31.78-73.96,77.822-59.623,129.624C15.814,244.344,74.039,240.134,109.35,228.94z M35.243,143.362 c10.356-21.778,28.697-39.645,46.787-55.103c56.294-44.867,143.994-61.5,196.454-0.598c16.023,18.602,14.544,57.806,13.347,80.373 c-1.664,31.28-11.466,64.883-33.619,87.808c-19.292,19.972-77.316,29.366-71.556-10.933c3.323-23.296-1.43-57.203-32.482-57.632 c-37.078-0.511-65.116,27.734-104.223,20.772C18.626,202.474,25.305,164.254,35.243,143.362z"/> </g> </g>
</svg>